<?xml version="1.0" standalone="no"?>
<!DOCTYPE svg PUBLIC "-//W3C//DTD SVG 20010904//EN"
 "http://www.w3.org/TR/2001/REC-SVG-20010904/DTD/svg10.dtd">
<svg version="1.0" xmlns="http://www.w3.org/2000/svg"
 width="2048.000000pt" height="2048.000000pt" viewBox="0 0 2048.000000 2048.000000"
 preserveAspectRatio="xMidYMid meet">

<g transform="translate(0.000000,2048.000000) scale(0.100000,-0.100000)"
fill="#000000" stroke="none">
<path d="M10798 18389 c-195 -28 -454 -133 -635 -255 -52 -35 -104 -64 -116
-64 -12 0 -38 8 -57 19 -111 59 -299 101 -451 101 -466 0 -857 -293 -995 -745
-25 -82 -28 -105 -28 -250 -1 -180 16 -279 70 -402 8 -17 14 -35 14 -40 0 -15
100 -165 148 -220 101 -117 266 -233 418 -293 43 -17 83 -35 87 -40 7 -6 -68
-252 -101 -330 -22 -51 -102 -278 -123 -349 -17 -58 -30 -81 -61 -110 -118
-108 -241 -271 -305 -401 -67 -139 -84 -190 -122 -370 -28 -137 -35 -179 -61
-374 -12 -89 -19 -101 -96 -152 -75 -50 -146 -130 -182 -204 -28 -60 -38 -98
-59 -235 -8 -47 -11 -51 -58 -75 -53 -26 -136 -60 -195 -80 -54 -17 -211 -38
-255 -33 -22 2 -101 13 -176 24 -163 23 -252 24 -337 4 -225 -53 -331 -258
-238 -462 48 -105 177 -207 319 -253 137 -44 197 -52 477 -60 291 -9 301 -10
493 -64 67 -19 142 -38 166 -43 25 -5 46 -13 48 -20 2 -6 -22 -48 -53 -94
-128 -186 -144 -212 -164 -267 -107 -282 257 -416 735 -271 91 28 138 46 290
114 108 48 119 50 206 37 45 -6 87 -16 94 -22 35 -29 46 -267 20 -425 -33
-199 -143 -500 -226 -616 -10 -15 -19 -30 -19 -33 0 -7 -39 -65 -50 -76 -3 -3
-14 -18 -24 -35 -43 -69 -176 -223 -268 -310 -83 -79 -258 -226 -359 -301 -84
-62 -143 -108 -158 -123 -9 -9 -39 -34 -66 -56 -245 -195 -431 -398 -549 -599
-50 -86 -126 -248 -126 -270 0 -9 -8 -16 -17 -16 -17 0 -114 35 -223 80 -25
11 -101 42 -170 70 -69 28 -134 55 -145 60 -291 129 -630 260 -673 260 -24 0
-24 -1 -21 -77 l4 -78 -46 -5 c-46 -6 -61 -13 -109 -57 -20 -18 -39 -23 -100
-25 l-75 -3 -3 -32 c-2 -18 1 -47 6 -66 16 -59 2 -64 -71 -29 -92 45 -114 42
-171 -15 -27 -29 -46 -57 -46 -71 0 -28 42 -228 75 -352 57 -219 115 -468 115
-493 0 -15 -19 -55 -46 -93 -63 -93 -87 -144 -122 -259 -41 -135 -52 -201 -52
-321 0 -171 63 -366 155 -480 l34 -41 -1 -114 c0 -83 5 -136 20 -195 41 -162
157 -332 302 -445 69 -53 81 -68 100 -118 39 -103 109 -236 147 -277 63 -68
202 -154 250 -154 10 0 23 -4 29 -8 6 -4 36 -108 67 -232 51 -202 60 -228 86
-250 16 -14 87 -47 158 -74 199 -76 256 -98 428 -168 88 -35 263 -105 390
-154 l230 -89 115 -115 c228 -228 394 -338 771 -508 55 -25 56 -26 70 -192 13
-153 3 -243 -37 -324 -34 -71 -107 -144 -177 -179 -61 -31 -220 -68 -432 -102
-265 -42 -545 -94 -645 -119 -148 -38 -319 -98 -379 -133 -96 -57 -121 -84
-121 -130 1 -62 24 -82 150 -123 162 -54 283 -136 333 -227 18 -35 32 -82 42
-149 20 -132 33 -149 111 -148 37 0 86 10 129 26 175 64 473 96 734 78 162
-11 185 -14 321 -40 95 -19 118 -25 155 -40 91 -38 159 -60 186 -60 75 0 141
86 180 235 21 80 24 112 24 297 0 157 3 208 12 208 7 0 28 -13 46 -30 45 -39
158 -91 211 -97 35 -4 47 -1 73 21 44 37 57 75 51 151 -6 64 -6 65 -71 128
-37 35 -106 91 -154 125 -48 34 -109 76 -134 94 -92 65 -149 186 -149 319 0
74 24 217 39 232 6 6 72 0 178 -17 374 -58 561 -70 1053 -62 223 3 446 10 495
15 250 26 231 25 240 5 4 -11 10 -84 12 -164 7 -214 -19 -310 -115 -413 -26
-27 -74 -69 -107 -92 -57 -40 -239 -133 -371 -188 -87 -38 -428 -210 -511
-259 -110 -65 -215 -146 -245 -188 -31 -44 -58 -118 -58 -159 0 -15 11 -41 25
-57 l25 -29 252 0 c247 -1 256 -1 393 -32 122 -27 341 -100 370 -123 6 -4 37
-22 70 -40 33 -18 84 -53 113 -79 89 -78 112 -91 156 -91 23 0 53 8 67 18 15
9 46 30 70 46 270 182 797 289 1129 231 133 -23 147 -22 193 27 38 40 39 43
34 97 -3 37 -16 76 -38 116 -36 65 -182 223 -268 289 -111 85 -352 252 -411
286 -80 44 -207 178 -243 254 -43 91 -51 136 -44 270 7 128 24 240 53 344 l17
62 86 26 c77 23 158 50 261 89 82 31 305 137 375 179 358 215 640 476 875 811
44 61 176 277 224 365 67 121 141 280 204 440 82 207 159 466 207 691 17 83
33 131 49 152 36 48 122 213 151 290 63 169 97 378 97 597 0 245 -42 444 -100
474 -36 18 -61 8 -130 -54 -31 -28 -58 -46 -60 -41 -2 6 1 50 7 98 15 118 13
237 -3 363 -27 199 -86 320 -155 320 -32 0 -56 -24 -175 -177 -49 -62 -94
-113 -102 -113 -10 0 -14 12 -14 40 0 50 -26 177 -45 224 -20 48 -77 90 -110
82 -14 -4 -69 -52 -123 -108 -101 -105 -263 -248 -281 -248 -5 0 -44 43 -86
95 -133 165 -302 325 -524 495 -56 44 -223 151 -273 177 -28 14 -38 26 -43 53
-12 64 -45 121 -80 136 -39 16 -72 8 -140 -31 -26 -16 -50 -24 -54 -19 -5 5
-14 38 -20 73 -15 89 -40 112 -87 76 -10 -8 -27 -15 -38 -15 -16 0 -18 6 -14
51 6 58 -7 71 -47 45 -30 -19 -51 -21 -58 -3 -3 8 -8 45 -12 83 -10 90 -19
114 -46 114 -20 0 -84 -26 -235 -96 -41 -19 -85 -34 -98 -34 -13 0 -70 22
-127 50 -57 27 -111 50 -119 50 -9 0 -20 4 -25 9 -30 27 -334 113 -480 136
-55 9 -105 22 -111 28 -23 25 -46 184 -51 357 -8 275 22 455 129 775 28 83 58
168 68 190 10 22 30 69 45 105 49 117 106 233 173 350 161 280 261 399 502
592 120 95 199 180 245 263 20 36 41 63 46 60 4 -3 11 -28 15 -55 8 -62 24
-64 62 -7 74 108 106 216 107 360 0 53 3 97 7 97 4 0 14 -13 23 -30 31 -60 45
-33 45 85 0 103 -23 226 -55 300 -14 30 -25 58 -25 60 0 3 27 5 60 5 33 0 60
3 60 8 0 4 -18 18 -39 31 -145 89 -211 218 -260 509 l-29 172 20 53 c27 69 53
216 73 412 18 177 51 431 63 485 7 31 11 35 38 33 289 -20 363 -14 548 44 402
127 667 513 642 937 -10 168 -48 311 -113 422 -16 27 -32 56 -35 64 -11 31
-127 177 -189 240 -134 137 -341 266 -549 344 -48 18 -56 28 -133 181 -28 57
-133 224 -146 235 -3 3 -18 23 -34 46 -26 38 -169 186 -212 219 -188 144 -360
220 -591 260 -93 16 -300 18 -396 4z m297 -119 c315 -35 529 -145 756 -386 43
-46 159 -206 159 -220 0 -3 8 -18 19 -32 10 -15 28 -43 39 -62 156 -276 282
-459 282 -412 0 6 -44 126 -65 176 -10 24 -13 25 132 -58 304 -173 525 -413
607 -659 23 -69 46 -209 46 -281 0 -127 -41 -283 -108 -406 -123 -229 -376
-384 -663 -406 -120 -9 -279 4 -286 23 -8 20 34 235 72 368 l32 110 44 -2 c24
-1 98 -3 164 -4 112 -2 125 -1 179 24 89 41 72 52 -80 54 -88 1 -143 7 -173
17 -24 9 -52 16 -62 16 -28 0 -182 84 -247 134 -32 24 -80 70 -107 101 -28 32
-54 63 -60 69 -13 15 -54 70 -99 135 -45 64 -116 196 -116 216 0 19 -20 29
-33 16 -13 -13 5 -121 30 -179 71 -167 137 -275 227 -370 40 -42 157 -141 204
-172 l23 -15 -39 -140 c-36 -125 -56 -211 -108 -460 -8 -38 -22 -123 -32 -188
-9 -65 -21 -118 -27 -119 -5 -1 -17 12 -25 29 -22 42 -104 154 -129 177 -14
12 -21 31 -21 53 0 41 26 187 46 263 9 30 24 98 35 150 11 52 27 128 36 168 9
40 14 75 11 78 -11 10 -90 -264 -139 -481 -32 -139 -33 -146 -42 -147 -5 0
-41 28 -79 63 -67 61 -230 183 -276 208 -20 11 -20 13 -7 59 22 71 52 202 84
362 6 30 20 95 31 143 11 49 20 98 19 110 0 21 -1 20 -11 -3 -6 -14 -19 -59
-29 -100 -16 -66 -82 -310 -127 -472 -9 -32 -20 -58 -23 -58 -4 0 -35 16 -69
35 -34 19 -64 35 -67 35 -3 0 -32 13 -66 29 -136 65 -268 108 -452 150 l-120
27 1 50 c1 27 16 107 33 178 18 71 30 136 29 145 -5 21 -63 -161 -86 -269
l-18 -85 -40 1 c-21 1 -84 6 -139 12 -220 25 -588 3 -711 -41 -86 -31 -116
-39 -124 -31 -4 5 2 43 15 84 47 155 134 459 160 555 14 55 40 143 57 195 17
52 32 101 34 108 2 7 21 12 46 12 96 0 219 23 353 67 77 25 157 54 177 64 58
29 77 24 160 -44 237 -193 559 -302 833 -282 163 12 360 73 478 147 26 17 47
36 47 44 0 16 -7 17 -46 5 -196 -62 -376 -93 -539 -93 -202 -1 -348 34 -527
126 -104 53 -260 151 -266 168 -2 4 -7 8 -11 8 -9 0 -94 76 -189 168 -41 39
-76 72 -78 72 -11 0 52 -116 87 -160 52 -66 50 -69 -106 -123 -77 -27 -174
-55 -215 -62 -92 -17 -263 -19 -382 -4 -118 15 -133 2 -46 -39 34 -16 78 -33
96 -37 18 -4 36 -13 38 -20 3 -7 -12 -66 -34 -131 -38 -116 -103 -320 -138
-436 -10 -32 -22 -58 -26 -58 -9 0 -132 56 -203 93 -64 33 -156 97 -208 146
-106 99 -208 274 -244 419 -24 96 -24 305 1 397 76 290 329 555 608 639 158
47 291 58 426 35 60 -11 307 -90 320 -104 3 -3 -29 -39 -72 -80 -43 -41 -75
-79 -71 -85 6 -10 41 12 170 110 234 178 447 289 655 340 57 14 222 37 275 39
22 0 81 -4 130 -9z m-1004 -2241 c255 -26 497 -81 678 -155 321 -131 601 -316
787 -521 49 -54 91 -100 94 -103 3 -3 29 -34 58 -70 29 -36 56 -70 61 -76 5
-6 16 -25 25 -42 17 -33 16 -48 -14 -232 -5 -30 -12 -81 -16 -113 -3 -31 -10
-59 -14 -62 -4 -3 -27 34 -51 80 -94 183 -262 370 -476 532 -177 133 -285 193
-518 287 -119 49 -368 112 -519 132 -164 22 -447 22 -591 0 -108 -17 -241 -58
-359 -110 -69 -31 -81 -32 -71 -8 28 66 95 249 114 309 l23 72 52 15 c217 65
497 90 737 65z m-331 -441 c0 -4 -20 -24 -45 -45 -50 -41 -99 -106 -94 -122 2
-6 21 5 42 24 94 86 226 155 298 155 137 0 472 -67 655 -131 88 -30 325 -144
376 -180 14 -11 31 -19 37 -19 6 0 11 -3 11 -7 0 -5 17 -19 37 -33 101 -69
285 -235 361 -327 156 -189 222 -356 287 -735 9 -51 23 -115 32 -141 9 -26 14
-50 12 -52 -3 -2 -40 21 -84 51 -43 30 -89 54 -102 54 -14 0 -33 5 -44 11 -11
5 -27 9 -35 7 -9 -2 30 -36 90 -80 169 -126 221 -186 314 -361 25 -47 44 -99
48 -130 l7 -52 -41 42 c-38 39 -85 63 -98 50 -3 -3 8 -34 25 -69 51 -104 68
-201 63 -350 -2 -58 -13 -61 -31 -10 -23 64 -62 142 -72 142 -5 0 -9 -28 -9
-62 0 -82 -22 -172 -60 -250 -40 -82 -64 -113 -185 -234 -150 -151 -352 -280
-605 -388 -103 -44 -124 -58 -97 -69 21 -8 192 19 216 34 36 23 34 2 -7 -53
-22 -29 -69 -105 -106 -168 -37 -63 -71 -122 -75 -130 -23 -38 -93 -186 -139
-291 -82 -188 -186 -514 -223 -699 -30 -150 -33 -181 -33 -345 0 -149 4 -200
23 -295 38 -183 128 -378 219 -472 56 -59 64 -50 36 43 -9 30 -25 71 -36 92
-27 52 -20 67 29 57 160 -30 611 -182 629 -212 8 -12 -13 -26 -76 -49 -25 -9
-75 -30 -112 -47 -37 -18 -123 -52 -190 -78 -68 -25 -161 -61 -208 -79 -47
-18 -170 -61 -275 -95 -675 -221 -984 -376 -1237 -622 -131 -127 -256 -320
-303 -468 -10 -30 -20 -59 -23 -64 -3 -5 -28 35 -55 90 -55 110 -105 179 -199
276 -56 57 -189 168 -203 168 -2 0 -28 15 -57 34 -108 69 -371 186 -562 250
-81 28 -85 31 -76 68 13 57 58 156 105 233 13 22 27 47 31 55 7 13 87 128 118
168 17 23 277 283 316 317 46 41 252 204 365 290 260 199 444 382 575 575 42
63 130 206 130 213 0 7 78 176 93 202 50 88 70 148 103 311 29 142 37 204 38
299 0 66 -2 135 -6 153 l-7 32 172 0 c160 0 353 21 410 45 28 12 20 25 -15 25
-111 0 -428 23 -490 34 -192 37 -208 47 -121 75 384 125 537 215 612 361 76
146 111 301 111 486 0 94 3 124 13 124 7 0 62 -11 122 -25 114 -26 245 -34
195 -13 -142 62 -190 91 -237 142 -58 63 -79 104 -95 181 -6 30 -15 55 -19 55
-22 0 -31 -119 -15 -191 l8 -36 -68 -7 c-123 -11 -270 27 -347 89 -197 159
-266 326 -253 610 6 125 22 234 44 303 6 17 7 32 2 32 -4 0 -32 -16 -61 -36
-187 -128 -469 -205 -636 -175 -86 15 -163 52 -232 109 l-54 46 7 95 c4 53 11
188 16 301 l10 205 36 70 c39 76 94 162 134 209 94 114 332 306 377 306 4 0 9
-38 9 -84 1 -46 8 -94 14 -107 17 -31 80 -90 91 -84 9 6 2 32 -13 52 -18 23
-12 156 9 203 26 59 46 75 117 95 83 24 236 39 236 23z m-1064 -924 c-3 -8
-13 -14 -22 -14 -14 0 -16 7 -10 45 3 25 11 56 18 68 12 20 13 17 16 -32 2
-29 1 -60 -2 -67z m-18 -165 c2 -34 -2 -50 -18 -67 -33 -35 -50 -29 -50 19 0
56 27 104 55 96 6 -2 11 -24 13 -48z m73 -363 c96 -87 208 -121 374 -114 116
5 226 29 332 73 73 29 80 30 60 10 -37 -37 -30 -302 12 -445 31 -105 99 -220
178 -302 39 -41 148 -118 167 -118 6 0 22 -9 36 -20 l25 -20 -30 -26 c-41 -35
-161 -123 -210 -155 -117 -76 -317 -147 -505 -180 -147 -26 -415 -31 -545 -10
-141 22 -239 43 -288 62 -62 24 -119 39 -182 48 -27 3 -49 10 -47 14 5 14
-184 100 -393 178 -44 17 -96 37 -115 45 -50 20 -240 46 -338 46 -96 1 -164
-15 -209 -49 -63 -46 -50 -52 139 -52 94 -1 174 -4 177 -7 3 -3 -1 -14 -8 -26
-10 -16 -10 -19 1 -13 7 4 4 -2 -8 -14 -15 -16 -44 -26 -104 -37 -83 -14 -106
-23 -82 -31 18 -7 15 -23 -5 -23 -15 0 -16 -2 -3 -10 27 -17 -9 -12 -49 7 -47
23 -153 142 -164 185 -35 133 57 238 235 268 62 11 88 10 178 -5 214 -34 362
-86 650 -227 216 -105 280 -131 280 -112 0 5 -14 18 -30 29 -16 11 -30 23 -30
28 0 4 -6 7 -12 7 -7 0 -42 18 -78 40 -67 42 -241 128 -342 170 -59 24 -74 40
-38 40 73 0 327 102 452 183 192 123 339 308 399 504 38 122 46 126 120 59z
m-245 -90 c18 -48 -216 -350 -247 -319 -14 14 -1 58 44 152 50 104 185 215
203 167z m-1206 -843 c0 -1 -15 -6 -32 -11 -18 -6 -41 -13 -50 -17 -13 -5 -18
-2 -18 11 0 16 8 19 50 19 28 0 50 -1 50 -2z m-115 -13 c-3 -5 -10 -10 -16
-10 -5 0 -9 5 -9 10 0 6 7 10 16 10 8 0 12 -4 9 -10z m2875 -204 c0 -3 -4 -8
-10 -11 -5 -3 -10 -1 -10 4 0 6 5 11 10 11 6 0 10 -2 10 -4z m-2 -66 c15 -9
15 -10 -3 -8 -23 3 -35 16 -35 38 1 12 3 11 11 -2 5 -10 17 -22 27 -28z
m-2211 4 c-3 -3 -12 -4 -19 -1 -8 3 -5 6 6 6 11 1 17 -2 13 -5z m248 -84 c13
-5 14 -9 5 -9 -8 0 -24 4 -35 9 -13 5 -14 9 -5 9 8 0 24 -4 35 -9z m389 -52
c28 -26 -77 -49 -129 -29 -19 8 -19 8 2 15 13 4 27 4 33 1 5 -3 10 -2 10 4 0
5 12 12 28 14 15 2 31 5 35 6 4 0 14 -5 21 -11z m1650 -4 c5 -13 9 -14 21 -4
26 22 18 -21 -10 -54 -25 -29 -85 -47 -85 -26 0 6 9 10 20 10 12 0 17 5 14 14
-3 8 -1 17 4 20 5 3 7 17 4 31 -5 29 22 36 32 9z m-250 -12 c2 -4 -4 -9 -15
-9 -10 -1 -19 2 -19 8 0 11 27 12 34 1z m-24 -42 c0 -5 -5 -10 -11 -10 -5 0
-7 5 -4 10 3 6 8 10 11 10 2 0 4 -4 4 -10z m-70 -31 c0 -13 -80 -118 -115
-150 -91 -83 -76 -72 -190 -134 -141 -76 -175 -97 -175 -106 0 -6 -13 -15 -30
-20 -16 -6 -27 -15 -24 -20 3 -5 -7 -9 -21 -9 -14 0 -24 -4 -21 -9 7 -10 -17
-21 -46 -21 -12 0 -27 -8 -34 -17 -9 -12 -13 -14 -14 -5 0 7 -5 10 -10 7 -6
-4 -8 -11 -5 -16 4 -5 -2 -12 -12 -15 -10 -3 -28 -11 -41 -17 -15 -7 -26 -7
-33 0 -14 14 -59 4 -59 -13 0 -9 -11 -14 -31 -14 -24 0 -29 -3 -21 -13 11 -12
-33 -27 -244 -81 -187 -49 -428 19 -393 111 16 42 18 42 52 8 62 -62 157 -70
353 -30 117 24 209 53 299 94 22 10 80 37 128 60 49 23 94 41 101 41 7 0 17 5
23 11 13 13 28 22 99 60 69 38 217 136 309 205 147 112 155 116 155 93z m210
-19 c0 -5 -5 -10 -11 -10 -5 0 -7 5 -4 10 3 6 8 10 11 10 2 0 4 -4 4 -10z
m-1132 -112 c23 -1 42 -5 42 -8 0 -14 -65 -90 -77 -90 -19 0 -26 -19 -13 -35
19 -23 44 -18 76 16 51 54 70 59 221 58 76 0 147 -4 157 -8 17 -7 16 -9 -11
-29 -17 -12 -36 -22 -42 -22 -6 0 -11 -4 -11 -8 0 -10 -203 -108 -340 -165
-163 -68 -370 -121 -385 -98 -8 13 13 53 76 145 106 156 211 263 248 251 9 -2
35 -5 59 -7z m2966 -2663 c3 -8 8 -44 12 -80 8 -74 18 -87 65 -83 33 3 34 2
37 -40 3 -37 0 -43 -22 -52 -35 -13 -33 -21 2 -10 16 4 57 11 92 15 72 8 80 3
80 -58 0 -35 -3 -39 -37 -53 -21 -9 -60 -26 -88 -39 -27 -12 -76 -34 -107 -49
-32 -14 -91 -41 -130 -60 -109 -51 -198 -91 -333 -151 -16 -7 -93 -42 -170
-78 -217 -100 -275 -127 -340 -154 -64 -27 -128 -56 -318 -147 -65 -31 -120
-56 -121 -56 -4 0 -330 -149 -461 -210 -132 -62 -273 -127 -480 -220 -219 -99
-250 -117 -275 -159 -50 -83 -82 -123 -126 -154 -63 -45 -98 -55 -179 -55 -38
0 -84 5 -102 11 -61 23 -122 75 -154 132 -17 31 -44 68 -59 83 -37 37 -135 85
-320 157 -47 18 -155 63 -240 100 -85 36 -182 77 -216 90 -34 12 -70 28 -80
34 -10 6 -48 22 -84 37 -36 14 -83 34 -105 44 -22 9 -87 37 -145 60 -58 24
-123 51 -146 61 -22 10 -65 28 -95 39 -29 12 -78 33 -109 47 -30 14 -118 52
-195 85 -77 32 -149 63 -160 68 -11 5 -74 32 -140 59 -66 27 -169 70 -230 96
-60 26 -120 51 -132 56 -15 5 -23 17 -23 31 0 13 -3 40 -7 61 l-6 38 60 -6
c60 -7 60 -7 97 30 32 31 47 38 94 44 32 4 63 10 70 14 7 5 12 30 12 63 0 64
5 65 82 30 29 -14 125 -55 213 -91 88 -37 232 -98 320 -135 163 -69 590 -240
600 -240 3 0 24 -9 48 -20 23 -10 105 -42 182 -71 345 -127 538 -240 706 -413
103 -108 187 -260 213 -386 24 -117 39 -154 69 -164 15 -6 29 -7 32 -4 4 3 19
61 35 129 28 121 84 273 130 354 131 232 351 424 661 577 221 109 291 135 839
318 343 114 421 143 578 216 41 19 76 34 78 34 3 0 100 46 217 103 284 138
280 137 293 137 7 0 14 -7 18 -15z m754 -607 c192 -130 330 -247 527 -448 125
-127 196 -214 313 -380 205 -293 271 -422 360 -700 85 -266 83 -639 -4 -929
-64 -212 -160 -405 -278 -558 -55 -72 -166 -180 -226 -220 -87 -59 -144 -93
-151 -93 -5 0 -32 -11 -61 -24 -143 -64 -233 -80 -427 -73 -166 6 -242 20
-414 78 -179 60 -271 113 -409 231 -70 61 -108 109 -108 139 0 14 23 17 162
23 89 3 191 11 227 17 127 21 362 70 379 79 9 4 53 21 97 35 137 47 270 129
259 160 -4 9 -33 1 -102 -30 -53 -23 -151 -59 -217 -81 l-120 -39 -170 0
c-186 0 -218 7 -365 78 -184 89 -358 233 -448 372 -52 80 -122 229 -122 262 0
34 32 46 93 34 174 -35 508 -71 665 -71 417 0 726 130 927 390 36 47 105 168
105 185 0 19 -27 -5 -73 -67 -30 -40 -67 -87 -83 -104 -70 -76 -265 -204 -375
-245 -69 -27 -206 -56 -327 -69 -152 -18 -338 8 -452 62 -175 84 -315 227
-409 418 -24 47 -46 92 -51 101 -13 25 -32 138 -25 149 10 15 62 12 165 -11
127 -28 341 -22 505 15 212 46 421 136 565 240 69 50 180 163 200 202 8 16 22
41 32 56 34 50 61 168 39 168 -5 0 -19 -16 -31 -35 -12 -20 -27 -41 -34 -48
-6 -6 -20 -23 -29 -37 -27 -40 -129 -140 -137 -135 -4 3 -9 49 -10 102 -3 135
-7 200 -14 212 -4 5 -13 119 -21 253 -8 134 -18 276 -21 316 -5 51 -3 72 5 72
6 0 46 -23 89 -52z m1250 -507 c4 -145 -9 -220 -50 -288 -36 -59 -115 -153
-128 -153 -5 0 -28 28 -51 63 -23 34 -65 93 -92 131 -49 66 -50 69 -31 82 119
85 195 156 292 269 47 55 56 39 60 -104z m434 -1 c39 -167 32 -386 -18 -556
-35 -121 -112 -269 -184 -353 -56 -64 -67 -91 -38 -91 6 0 25 12 43 28 18 15
63 49 101 76 86 62 232 183 301 250 29 27 56 47 59 43 25 -24 31 -240 9 -314
-32 -109 -154 -305 -292 -472 -35 -41 -63 -79 -63 -83 0 -60 208 135 312 292
51 78 53 80 56 50 5 -49 -27 -181 -90 -365 -50 -148 -169 -343 -297 -490 -39
-44 -71 -86 -71 -92 0 -30 55 -3 124 60 22 19 36 22 36 6 0 -5 -13 -63 -30
-127 -63 -250 -157 -485 -327 -817 -98 -192 -283 -472 -418 -632 -116 -138
-375 -383 -404 -383 -6 0 -11 -4 -11 -9 0 -7 -139 -106 -192 -136 -10 -5 -53
-31 -95 -56 -43 -26 -91 -53 -108 -61 -16 -8 -40 -20 -52 -26 -49 -26 -63 -32
-70 -32 -5 0 -1 6 7 13 35 28 141 201 156 255 9 31 20 61 25 67 5 5 9 22 9 37
0 21 -5 28 -20 28 -11 0 -24 -8 -27 -17 -11 -30 -89 -137 -163 -223 -82 -97
-280 -248 -311 -238 -5 2 4 19 20 39 33 40 48 83 32 93 -5 4 -28 -12 -50 -34
-43 -44 -58 -51 -41 -21 5 11 10 22 10 26 0 13 -43 -18 -76 -55 -54 -60 -112
-84 -188 -78 -74 6 -120 28 -163 77 -24 28 -34 33 -44 24 -9 -9 -9 -19 3 -45
30 -63 31 -75 6 -82 -65 -17 -131 -6 -217 35 -74 36 -100 56 -193 151 -60 61
-112 107 -118 103 -7 -4 -8 -19 -4 -38 8 -42 52 -147 67 -162 7 -6 28 -29 47
-51 43 -47 100 -93 158 -125 43 -23 43 -24 17 -31 -84 -22 -319 -33 -715 -33
-556 1 -752 18 -1175 102 -296 58 -435 104 -660 216 -158 79 -407 238 -393
252 7 8 125 -39 353 -140 17 -7 102 -41 190 -75 205 -78 212 -82 263 -130 82
-77 189 -110 325 -99 72 6 223 43 237 59 3 3 22 16 42 28 43 27 144 133 153
162 6 20 16 25 28 13 4 -3 -1 -16 -10 -27 -10 -12 -11 -15 -3 -8 19 17 33 15
26 -3 -3 -8 -1 -15 3 -15 5 0 11 6 13 12 3 7 30 15 63 18 68 6 82 24 33 44
-27 12 -36 12 -48 1 -8 -7 -23 -10 -33 -6 -15 6 -11 12 27 39 24 18 46 32 49
32 2 0 54 23 113 51 60 28 125 58 144 66 19 9 80 37 135 63 257 122 305 144
375 175 41 18 138 63 215 100 77 37 165 78 195 92 54 25 186 87 305 143 33 16
128 61 210 100 83 38 158 75 167 80 10 6 23 10 30 10 7 0 60 23 117 50 211
102 235 111 271 98 37 -13 248 -5 345 13 156 28 336 95 432 160 71 48 221 187
286 266 122 147 226 364 305 633 63 220 67 247 67 490 -1 206 -3 236 -28 352
-15 70 -46 178 -68 240 -22 62 -43 122 -47 133 -10 34 -103 218 -123 243 -10
14 -19 27 -19 31 0 3 45 44 101 91 120 101 267 260 370 398 41 56 78 100 84
98 5 -1 18 -36 27 -76z m-2107 -72 c14 -84 53 -447 54 -500 1 -35 -2 -38 -45
-58 -56 -24 -62 -25 -86 -3 -18 16 -22 16 -66 -1 -26 -10 -60 -19 -77 -20 -29
-1 -30 0 -33 49 l-3 50 53 20 c56 21 73 50 44 74 -12 10 -21 9 -45 -3 -32 -17
-67 -21 -74 -8 -2 4 -7 23 -11 43 l-6 36 70 32 c79 37 84 42 76 77 -8 31 -23
30 -94 -6 -33 -16 -63 -30 -68 -30 -5 0 -22 -11 -38 -24 -30 -23 -30 -23 -18
-78 18 -79 40 -258 35 -279 -7 -24 -18 -27 -123 -35 -103 -8 -115 2 -45 36 58
28 85 77 85 155 0 46 -4 60 -25 80 -32 33 -101 34 -170 1 -71 -33 -81 -55 -68
-163 10 -90 6 -110 -21 -100 -12 5 -16 20 -16 56 0 44 -3 52 -31 72 -24 17
-39 20 -74 16 -56 -8 -125 -36 -125 -51 0 -21 23 -36 55 -37 30 0 30 0 -11
-19 -22 -10 -50 -31 -62 -46 -19 -27 -21 -28 -27 -9 -17 52 -26 65 -44 65 -11
0 -23 -5 -26 -10 -7 -12 26 -233 57 -373 17 -79 27 -102 45 -114 18 -12 26
-13 37 -4 11 10 20 5 42 -24 16 -21 23 -39 18 -44 -8 -8 -136 -67 -469 -218
-66 -30 -133 -60 -150 -68 -56 -25 -250 -113 -340 -155 -164 -76 -320 -147
-352 -159 -43 -17 -76 -11 -90 19 -10 22 -49 186 -133 563 -26 115 -21 131 51
161 24 10 58 25 74 32 17 7 95 43 175 78 186 82 359 161 484 220 54 25 100 46
103 46 5 0 77 33 343 157 113 53 191 89 230 106 40 17 159 72 439 203 51 24
94 44 96 44 1 0 81 38 176 83 173 84 198 95 211 96 4 1 10 -14 13 -31z m-495
-448 c39 -39 14 -104 -49 -130 -48 -20 -61 -8 -61 53 0 65 18 86 83 96 4 0 16
-8 27 -19z m-5607 -81 c7 -78 54 -174 118 -239 157 -160 496 -252 991 -269
173 -6 199 -9 217 -25 56 -50 3 -156 -155 -313 -151 -150 -357 -252 -561 -278
-133 -17 15 -42 180 -31 111 8 258 29 352 51 70 17 249 51 316 60 87 13 109
-18 84 -117 -36 -138 -118 -289 -213 -390 -127 -136 -328 -232 -514 -245 -96
-7 -109 -19 -42 -41 27 -10 77 -12 164 -9 110 3 137 8 230 39 58 20 122 44
142 54 21 10 41 15 44 11 9 -9 -46 -119 -89 -180 -48 -67 -136 -139 -230 -188
-69 -36 -90 -42 -161 -46 -78 -4 -84 -3 -161 35 -83 41 -157 108 -207 187 -39
64 -42 78 -16 72 49 -12 148 -19 148 -11 0 5 -17 19 -38 32 l-37 22 59 -2 c77
-4 85 15 14 32 -52 13 -138 47 -148 59 -3 3 -25 16 -50 28 -81 39 -207 144
-284 234 -35 42 -110 197 -125 261 -12 50 -15 128 -5 128 3 0 18 -8 32 -19 64
-44 126 -63 225 -69 70 -3 105 -1 123 8 19 11 29 11 50 1 32 -14 42 -8 23 15
-10 13 -24 15 -61 11 -42 -5 -56 -1 -135 40 -160 83 -230 137 -314 243 -108
137 -153 361 -115 579 25 140 110 352 135 337 5 -3 11 -33 14 -67z m4200
-3586 c-7 -2 -21 -2 -30 0 -10 3 -4 5 12 5 17 0 24 -2 18 -5z m-1029 -831 c-3
-20 -7 -51 -10 -68 -2 -18 -22 -59 -43 -92 l-39 -60 24 -23 c36 -33 31 -68
-16 -122 -23 -25 -49 -49 -59 -52 -11 -3 -22 -16 -25 -29 -5 -20 -12 -23 -46
-23 -23 0 -46 -5 -53 -12 -6 -6 -19 -11 -28 -11 -9 0 -23 -8 -30 -17 -12 -14
-12 -15 0 -9 12 8 30 -7 31 -25 0 -3 -33 -21 -72 -40 -40 -19 -75 -36 -78 -39
-3 -3 -50 -29 -105 -57 -55 -27 -124 -64 -153 -82 -29 -17 -54 -31 -56 -31
-10 0 -152 -91 -241 -154 -107 -76 -195 -158 -195 -181 0 -18 -39 -40 -50 -28
-5 4 -13 40 -18 78 -25 181 -139 307 -362 402 l-25 11 25 5 c189 42 397 69
740 97 63 5 131 14 150 20 44 13 101 13 135 0 23 -9 41 -3 132 45 141 75 183
102 183 120 0 18 -26 19 -101 5 -90 -17 -387 -59 -499 -69 -58 -6 -143 -18
-190 -26 -47 -9 -123 -23 -170 -31 -158 -28 -390 -95 -433 -125 -29 -21 -68
-22 -74 -3 -4 12 186 101 272 128 52 16 156 41 239 57 140 27 420 73 566 94
201 29 245 38 335 72 140 52 231 130 292 249 21 40 41 70 45 68 3 -2 4 -21 2
-42z m237 -642 c32 -63 55 -154 64 -255 6 -63 15 -102 15 -63 0 9 7 19 16 22
13 5 15 -2 9 -52 -4 -31 -11 -75 -17 -96 -10 -40 -53 -116 -66 -116 -4 0 -39
16 -78 35 -142 70 -565 135 -784 120 -155 -11 -341 -33 -403 -50 -32 -8 -67
-15 -78 -15 -28 0 -9 18 61 56 30 17 82 46 115 65 33 19 83 44 110 56 28 12
154 73 280 136 270 135 330 157 447 164 80 5 90 4 130 -20 24 -14 51 -34 61
-45 21 -23 42 -133 52 -262 3 -47 8 -105 12 -130 5 -42 6 -43 15 -20 16 38 11
282 -6 392 -9 54 -16 107 -16 119 0 38 33 16 61 -41z m2263 -100 c61 -14 64
-26 32 -140 -28 -98 -57 -220 -61 -258 -3 -20 -11 -66 -19 -102 -8 -36 -21
-98 -29 -139 -21 -105 -63 -131 -111 -68 -22 29 -23 37 -15 87 63 393 101 599
113 619 9 13 37 14 90 1z m-877 -57 c2 -6 -5 -14 -16 -18 -12 -3 -34 -20 -50
-36 -24 -24 -263 -169 -279 -169 -7 0 -87 -64 -90 -73 -6 -12 -59 -37 -82 -37
-31 0 -24 26 23 77 49 53 165 131 295 197 142 73 190 87 199 59z m678 -19 c18
-19 16 -74 -10 -274 -8 -58 -17 -149 -21 -203 -4 -53 -9 -97 -11 -97 -2 0 -31
18 -63 40 -32 22 -64 40 -69 40 -6 0 -11 3 -11 8 0 4 -15 13 -32 21 -18 7 -61
26 -96 42 -35 16 -70 29 -78 29 -8 0 -22 4 -32 9 -54 29 -345 81 -497 89
l-120 7 60 22 c33 12 85 31 115 43 30 12 136 50 235 85 99 34 187 65 195 68
83 31 317 84 382 86 22 1 43 -6 53 -15z m625 -9 c168 -35 290 -91 290 -132 0
-10 7 -12 20 -8 21 7 52 -5 165 -62 69 -35 205 -129 205 -141 0 -4 -84 -7
-188 -7 -329 -1 -572 -55 -829 -183 -51 -25 -95 -43 -99 -40 -6 7 59 165 88
213 10 17 18 38 18 47 0 9 4 18 9 20 4 2 35 59 68 128 64 135 102 180 153 180
16 0 61 -7 100 -15z"/>
<path d="M10327 15123 c-26 -9 -68 -34 -92 -55 -36 -31 -45 -46 -45 -71 0 -67
6 -68 153 -24 95 29 159 23 252 -23 66 -33 101 -62 159 -134 43 -53 60 -48 44
13 -15 52 -45 110 -86 161 -61 75 -117 114 -199 135 -72 19 -125 18 -186 -2z"/>
<path d="M10312 14679 c-68 -27 -156 -113 -200 -195 -35 -68 -62 -178 -62
-257 0 -59 31 -180 61 -239 27 -53 90 -121 145 -155 24 -16 44 -32 44 -36 0
-5 -14 -29 -32 -53 -36 -51 -31 -69 10 -32 84 78 193 142 311 185 72 26 85 28
233 27 185 -1 194 10 41 46 -54 12 -99 23 -100 24 -1 1 4 42 12 91 27 165 17
257 -41 383 -84 185 -261 273 -422 211z m225 -105 c28 -13 58 -35 66 -48 9
-13 22 -29 29 -37 8 -8 27 -43 42 -79 25 -56 29 -80 33 -180 4 -116 -11 -215
-32 -208 -5 2 -9 6 -7 11 12 37 19 148 12 192 -17 106 -124 222 -213 232 -117
14 -228 -78 -269 -221 -24 -86 -48 -69 -48 35 0 87 22 156 69 219 46 61 69 79
136 102 60 21 109 16 182 -18z m-48 -185 c45 -16 53 -55 17 -86 -29 -25 -56
-29 -87 -13 -28 15 -26 74 3 94 27 19 27 19 67 5z"/>
<path d="M8628 9818 c-16 -16 -28 -32 -28 -36 0 -4 -8 -15 -17 -24 -53 -50
-129 -187 -139 -251 -3 -22 11 -1 44 63 59 116 74 142 88 155 6 5 24 28 40 50
16 22 35 44 41 48 14 9 18 28 6 26 -5 -1 -20 -15 -35 -31z"/>
<path d="M8186 9428 c-19 -29 -40 -87 -34 -94 3 -2 17 21 33 51 28 57 29 86 1
43z"/>
<path d="M8665 9404 c-25 -52 -55 -170 -54 -208 1 -29 2 -29 10 9 5 21 23 79
40 128 32 94 35 136 4 71z"/>
<path d="M8359 9298 c-19 -35 -39 -130 -30 -145 8 -14 34 58 47 130 7 42 1 48
-17 15z"/>
<path d="M9075 13644 c-45 -23 -83 -62 -126 -128 -75 -114 -40 -138 92 -60 43
25 90 59 104 76 30 36 33 87 7 111 -23 21 -39 21 -77 1z"/>
<path d="M7330 13066 c0 -2 7 -6 15 -10 8 -3 15 -1 15 4 0 6 -7 10 -15 10 -8
0 -15 -2 -15 -4z"/>
<path d="M7200 13052 c0 -5 7 -13 16 -16 10 -4 14 -1 12 6 -5 15 -28 23 -28
10z"/>
<path d="M11695 9680 c-3 -6 1 -7 9 -4 18 7 21 14 7 14 -6 0 -13 -4 -16 -10z"/>
<path d="M11650 9660 c-9 -6 -10 -10 -3 -10 6 0 15 5 18 10 8 12 4 12 -15 0z"/>
<path d="M11735 9560 c-3 -6 1 -7 9 -4 18 7 21 14 7 14 -6 0 -13 -4 -16 -10z"/>
<path d="M11620 9513 c-19 -8 -51 -22 -70 -31 -19 -8 -30 -17 -23 -19 6 -2 44
12 85 31 71 35 78 50 8 19z"/>
<path d="M11250 9470 c0 -13 11 -13 30 0 12 8 11 10 -7 10 -13 0 -23 -4 -23
-10z"/>
<path d="M11435 9433 c-11 -3 -24 -9 -29 -14 -16 -14 16 -10 44 6 25 14 21 17
-15 8z"/>
<path d="M11370 9400 c-9 -6 -10 -10 -3 -10 6 0 15 5 18 10 8 12 4 12 -15 0z"/>
<path d="M11010 9365 c-14 -8 -19 -14 -10 -14 8 0 26 6 40 14 14 8 19 14 10
14 -8 0 -26 -6 -40 -14z"/>
<path d="M11290 9360 c-8 -5 -10 -10 -5 -10 6 0 17 5 25 10 8 5 11 10 5 10 -5
0 -17 -5 -25 -10z"/>
<path d="M10935 9330 c-16 -7 -17 -9 -3 -9 9 -1 20 4 23 9 7 11 7 11 -20 0z"/>
<path d="M11210 9330 c-12 -8 -10 -10 8 -10 13 0 20 4 17 10 -7 12 -6 12 -25
0z"/>
<path d="M11115 9286 c-18 -13 -18 -14 8 -9 15 3 27 9 27 14 0 13 -13 11 -35
-5z"/>
<path d="M6925 9261 c6 -11 110 -51 128 -50 14 1 -102 57 -121 58 -7 1 -11 -3
-7 -8z"/>
<path d="M11045 9260 c-3 -5 1 -10 9 -10 8 0 18 5 21 10 3 6 -1 10 -9 10 -8 0
-18 -4 -21 -10z"/>
<path d="M10698 9233 c7 -3 16 -2 19 1 4 3 -2 6 -13 5 -11 0 -14 -3 -6 -6z"/>
<path d="M10505 9178 c-44 -17 -86 -32 -94 -34 -30 -9 -3 -12 29 -4 50 13 169
55 177 63 14 15 -36 3 -112 -25z"/>
<path d="M6778 9193 c7 -3 16 -2 19 1 4 3 -2 6 -13 5 -11 0 -14 -3 -6 -6z"/>
<path d="M7081 9196 c2 -2 15 -9 29 -15 24 -11 24 -11 6 3 -16 13 -49 24 -35
12z"/>
<path d="M10870 9180 c-18 -12 -2 -12 25 0 13 6 15 9 5 9 -8 0 -22 -4 -30 -9z"/>
<path d="M6850 9160 c19 -11 44 -19 55 -19 13 0 6 7 -20 19 -53 24 -80 24 -35
0z"/>
<path d="M7141 9166 c2 -2 18 -6 34 -10 22 -5 26 -4 15 4 -14 9 -59 15 -49 6z"/>
<path d="M10775 9140 c-3 -6 1 -7 9 -4 18 7 21 14 7 14 -6 0 -13 -4 -16 -10z"/>
<path d="M6970 9115 c46 -18 64 -17 25 0 -16 8 -37 14 -45 14 -8 0 1 -7 20
-14z"/>
<path d="M10272 9101 c-45 -16 -86 -31 -89 -35 -12 -11 29 -6 60 8 18 8 56 22
85 31 50 16 65 25 40 25 -7 0 -50 -13 -96 -29z"/>
<path d="M10705 9115 c-23 -10 -25 -13 -10 -14 11 0 31 6 45 14 32 18 5 19
-35 0z"/>
<path d="M10610 9080 c-25 -11 -37 -19 -26 -19 26 -1 86 21 86 31 0 11 -9 9
-60 -12z"/>
<path d="M7078 9073 c7 -3 16 -2 19 1 4 3 -2 6 -13 5 -11 0 -14 -3 -6 -6z"/>
<path d="M10075 9031 c-99 -34 -394 -177 -430 -209 -6 -5 -29 -22 -52 -39 -42
-30 -107 -83 -170 -137 -18 -15 -43 -42 -55 -60 -18 -27 -15 -26 18 9 33 33
106 97 162 140 7 6 18 15 25 20 71 59 251 156 407 219 36 15 76 33 90 40 14 8
40 17 57 21 18 3 35 11 38 16 9 13 -2 11 -90 -20z"/>
<path d="M10500 9042 c-25 -10 -49 -20 -55 -23 -5 -4 -25 -10 -42 -14 -18 -3
-35 -11 -38 -16 -11 -16 25 -10 79 15 30 14 70 28 90 31 20 4 33 11 30 16 -7
11 -9 11 -64 -9z"/>
<path d="M7208 9013 c7 -3 16 -2 19 1 4 3 -2 6 -13 5 -11 0 -14 -3 -6 -6z"/>
<path d="M7565 9000 c27 -12 43 -12 25 0 -8 5 -22 9 -30 9 -10 0 -8 -3 5 -9z"/>
<path d="M10315 8973 c-11 -3 -24 -10 -30 -15 -7 -7 -2 -9 15 -4 14 3 31 6 38
6 6 0 12 5 12 10 0 10 -3 11 -35 3z"/>
<path d="M10210 8936 c-19 -7 -56 -23 -82 -35 -26 -11 -52 -21 -58 -21 -14 0
-99 -44 -125 -64 -12 -10 5 -6 40 9 78 34 167 69 233 92 28 10 52 21 52 25 0
11 -19 9 -60 -6z"/>
<path d="M7798 8914 c29 -14 56 -23 59 -20 6 6 -45 29 -87 40 -14 3 -1 -6 28
-20z"/>
<path d="M7896 8871 c14 -13 206 -92 211 -87 6 6 -142 76 -161 76 -8 0 -18 5
-21 10 -3 6 -14 10 -23 10 -9 0 -12 -3 -6 -9z"/>
<path d="M7600 8851 c8 -5 26 -12 40 -15 24 -7 24 -6 6 8 -11 9 -29 16 -40 16
-17 -1 -18 -2 -6 -9z"/>
<path d="M7725 8800 c27 -12 43 -12 25 0 -8 5 -22 9 -30 9 -10 0 -8 -3 5 -9z"/>
<path d="M9845 8769 c-27 -17 -39 -27 -25 -24 14 4 32 14 41 21 8 8 23 14 32
14 9 0 19 5 22 10 12 19 -20 9 -70 -21z"/>
<path d="M7770 8784 c0 -3 17 -12 38 -21 20 -8 56 -24 80 -35 24 -10 49 -17
55 -15 7 3 3 8 -8 12 -11 5 -40 17 -65 28 -52 23 -100 38 -100 31z"/>
<path d="M8120 8775 c0 -2 14 -11 30 -20 17 -9 30 -12 30 -7 0 5 -11 14 -25
20 -28 13 -35 14 -35 7z"/>
<path d="M9760 8720 c0 -5 7 -7 15 -4 8 4 15 8 15 10 0 2 -7 4 -15 4 -8 0 -15
-4 -15 -10z"/>
<path d="M8246 8705 c10 -8 24 -15 31 -15 6 0 13 -3 15 -7 4 -10 90 -55 95
-50 5 5 -40 35 -97 64 -51 26 -73 30 -44 8z"/>
<path d="M7964 8701 c7 -11 98 -43 104 -36 6 6 -77 44 -96 45 -7 0 -11 -4 -8
-9z"/>
<path d="M9694 8683 c-50 -33 -48 -32 -41 -39 5 -5 38 15 86 53 2 2 2 5 0 8
-3 2 -23 -7 -45 -22z"/>
<path d="M9597 8613 c-20 -14 -37 -31 -37 -36 0 -6 8 -3 18 6 10 10 23 17 29
17 12 0 38 28 31 35 -2 2 -21 -7 -41 -22z"/>
<path d="M8400 8622 c0 -5 18 -21 40 -36 22 -14 40 -23 40 -19 -1 12 -80 66
-80 55z"/>
<path d="M9485 8520 c-10 -11 -14 -20 -9 -20 5 0 17 9 27 20 9 11 13 20 8 20
-4 0 -16 -9 -26 -20z"/>
<path d="M13637 7593 c-4 -3 -7 -46 -7 -94 0 -182 -38 -388 -101 -548 -48
-120 -99 -171 -171 -171 -41 0 -51 7 -74 50 -14 28 -18 57 -18 138 0 64 -4
102 -11 103 -22 3 -41 -4 -68 -23 -23 -16 -38 -19 -73 -14 -52 7 -73 24 -103
89 -13 26 -27 47 -32 47 -5 0 -9 -19 -9 -43 0 -31 9 -57 29 -89 37 -58 78 -81
140 -76 l46 3 3 -45 c1 -25 12 -73 23 -108 27 -82 67 -114 150 -120 78 -6 133
26 187 106 106 158 150 347 139 592 -8 167 -23 230 -50 203z"/>
<path d="M14088 8227 c-29 -55 -34 -72 -19 -62 15 8 54 91 50 104 -2 6 -16
-13 -31 -42z"/>
<path d="M11148 4593 c7 -3 16 -2 19 1 4 3 -2 6 -13 5 -11 0 -14 -3 -6 -6z"/>
<path d="M11080 4571 c-44 -20 -45 -20 -37 -27 4 -4 13 -1 22 6 9 7 27 10 45
6 33 -6 37 -2 17 18 -10 11 -19 10 -47 -3z"/>
<path d="M10233 4556 c19 -19 50 -21 45 -3 -3 6 -17 13 -33 15 -26 3 -27 2
-12 -12z"/>
<path d="M10303 4563 c9 -2 23 -2 30 0 6 3 -1 5 -18 5 -16 0 -22 -2 -12 -5z"/>
<path d="M10420 4560 c9 -6 14 -21 12 -45 -2 -20 1 -35 7 -35 6 0 11 20 11 45
0 40 -2 45 -22 45 -18 0 -20 -2 -8 -10z"/>
<path d="M10933 8029 c-39 -11 -91 -62 -111 -109 -24 -52 -20 -181 7 -250 49
-126 131 -164 220 -100 45 33 67 69 58 94 -10 25 -39 19 -80 -15 -52 -43 -75
-37 -109 31 -36 71 -39 176 -8 228 20 32 58 54 89 51 33 -3 41 2 41 24 0 28
-29 57 -56 56 -10 0 -33 -5 -51 -10z"/>
<path d="M10625 7882 c-62 -42 -90 -108 -90 -207 1 -142 53 -234 140 -251 50
-9 113 17 148 61 49 62 11 97 -50 46 -62 -51 -115 -35 -148 44 -50 120 -11
247 80 261 50 7 55 11 55 34 0 46 -76 52 -135 12z"/>
<path d="M10333 7758 c-51 -23 -94 -47 -97 -54 -3 -7 8 -75 24 -151 48 -226
60 -277 70 -287 12 -12 54 2 158 50 58 28 72 39 72 57 0 25 -17 47 -36 47 -7
0 -25 -11 -41 -24 -16 -13 -45 -27 -65 -31 l-36 -7 -11 52 c-6 28 -11 57 -11
63 0 7 27 25 60 40 50 23 60 32 60 53 0 32 -22 40 -63 21 -48 -22 -75 -29 -80
-20 -3 4 -8 29 -12 55 l-7 48 77 34 c71 33 76 37 73 63 -4 41 -29 39 -135 -9z"/>
<path d="M10030 7623 c-64 -21 -119 -47 -123 -58 -3 -7 18 -112 46 -234 52
-220 52 -221 79 -221 37 0 42 24 24 114 -21 100 -21 116 4 116 11 0 20 -4 20
-9 0 -6 25 -37 56 -70 56 -61 87 -74 112 -49 20 20 15 31 -48 102 l-61 68 20
32 c43 70 33 163 -23 201 -20 15 -75 19 -106 8z m68 -85 c34 -28 -2 -118 -53
-132 -35 -10 -48 9 -53 72 -4 58 -3 60 24 70 30 11 60 7 82 -10z"/>
</g>
</svg>
